<svg version="1.1" id="Layer_1" xmlns="http://www.w3.org/2000/svg" xmlns:xlink="http://www.w3.org/1999/xlink" x="0px" y="0px"
	 width="100%" viewBox="0 0 64 64" enable-background="new 0 0 64 64" xml:space="preserve">
<path fill="#000000" opacity="1.000000" stroke="none" 
	d="
M45.000957,65.000000 
	C30.000774,65.000000 15.500795,65.000000 1.000611,65.000000 
	C1.000407,43.666969 1.000407,22.333935 1.000204,1.000677 
	C22.333002,1.000451 43.666004,1.000451 64.999252,1.000226 
	C64.999504,22.332975 64.999504,43.665951 64.999756,64.999466 
	C58.500385,65.000000 52.000774,65.000000 45.000957,65.000000 
M36.333092,53.000000 
	C44.458488,53.809189 47.806847,50.928734 48.727135,45.112015 
	C49.624557,39.439827 49.411133,33.448952 48.719494,27.714483 
	C48.186756,23.297455 45.171391,20.079620 40.158607,20.023357 
	C32.340401,19.935608 24.519119,19.912006 16.701797,20.032877 
	C11.911153,20.106951 9.018142,23.287815 9.003774,28.118643 
	C8.987446,33.608665 8.992308,39.098789 9.002177,44.588840 
	C9.011936,50.017769 11.877860,52.929325 17.407106,52.986061 
	C23.395643,53.047516 29.385302,52.999992 36.333092,53.000000 
M45.104614,19.008808 
	C49.693371,21.945385 51.614803,26.002663 51.078659,31.533310 
	C50.679398,35.651943 51.000000,39.840359 51.000000,43.997696 
	C51.639751,44.146217 52.279507,44.294743 52.919258,44.443264 
	C54.275677,41.847694 56.498253,39.350262 56.805794,36.635853 
	C57.420780,31.207846 57.360027,25.628050 56.878620,20.172670 
	C56.417324,14.945213 52.494629,12.028173 47.121861,12.006808 
	C40.124710,11.978983 33.123840,12.133287 26.131470,11.948329 
	C22.151230,11.843046 19.418484,13.427206 17.569025,16.146175 
	C26.511366,17.047096 35.413918,17.944008 45.104614,19.008808 
z"/>
<path fill="#FFFFFF" opacity="1.000000" stroke="none" 
	d="
M35.853783,53.000000 
	C29.385302,52.999992 23.395643,53.047516 17.407106,52.986061 
	C11.877860,52.929325 9.011936,50.017769 9.002177,44.588840 
	C8.992308,39.098789 8.987446,33.608665 9.003774,28.118643 
	C9.018142,23.287815 11.911153,20.106951 16.701797,20.032877 
	C24.519119,19.912006 32.340401,19.935608 40.158607,20.023357 
	C45.171391,20.079620 48.186756,23.297455 48.719494,27.714483 
	C49.411133,33.448952 49.624557,39.439827 48.727135,45.112015 
	C47.806847,50.928734 44.458488,53.809189 35.853783,53.000000 
M17.396582,38.004204 
	C13.206227,39.211945 15.305846,42.634068 15.262193,45.054482 
	C15.250966,45.676949 18.028933,46.846317 19.561373,46.910583 
	C25.016926,47.139362 30.496231,47.172741 35.948761,46.910469 
	C37.979057,46.812809 41.668915,45.698597 41.669235,45.046494 
	C41.670647,42.176723 41.155521,38.997505 39.774258,36.516964 
	C38.161461,33.620632 35.503063,33.934761 33.110664,36.335377 
	C30.744902,38.709270 28.197605,40.902248 26.203249,42.738743 
	C23.123760,40.912785 20.668739,39.457100 17.396582,38.004204 
z"/>
<path fill="#FFFFFF" opacity="1.000000" stroke="none" 
	d="
M44.710541,18.924862 
	C35.413918,17.944008 26.511366,17.047096 17.569025,16.146175 
	C19.418484,13.427206 22.151230,11.843046 26.131470,11.948329 
	C33.123840,12.133287 40.124710,11.978983 47.121861,12.006808 
	C52.494629,12.028173 56.417324,14.945213 56.878620,20.172670 
	C57.360027,25.628050 57.420780,31.207846 56.805794,36.635853 
	C56.498253,39.350262 54.275677,41.847694 52.919258,44.443264 
	C52.279507,44.294743 51.639751,44.146217 51.000000,43.997696 
	C51.000000,39.840359 50.679398,35.651943 51.078659,31.533310 
	C51.614803,26.002663 49.693371,21.945385 44.710541,18.924862 
z"/>
<path fill="#000000" opacity="1.000000" stroke="none" 
	d="
M17.805151,38.002808 
	C20.668739,39.457100 23.123760,40.912785 26.203249,42.738743 
	C28.197605,40.902248 30.744902,38.709270 33.110664,36.335377 
	C35.503063,33.934761 38.161461,33.620632 39.774258,36.516964 
	C41.155521,38.997505 41.670647,42.176723 41.669235,45.046494 
	C41.668915,45.698597 37.979057,46.812809 35.948761,46.910469 
	C30.496231,47.172741 25.016926,47.139362 19.561373,46.910583 
	C18.028933,46.846317 15.250966,45.676949 15.262193,45.054482 
	C15.305846,42.634068 13.206227,39.211945 17.805151,38.002808 
z"/>
</svg>