<!DOCTYPE svg PUBLIC "-//W3C//DTD SVG 1.1//EN" "http://www.w3.org/Graphics/SVG/1.1/DTD/svg11.dtd">
<!-- Uploaded to: SVG Repo, www.svgrepo.com, Transformed by: SVG Repo Mixer Tools -->
<svg fill="#ffffff" version="1.1" id="Capa_1" xmlns="http://www.w3.org/2000/svg" xmlns:xlink="http://www.w3.org/1999/xlink" width="800px" height="800px" viewBox="0 0 49.227 49.227" xml:space="preserve" stroke="#ffffff" stroke-width="2.510577">
<g id="SVGRepo_bgCarrier" stroke-width="0"/>
<g id="SVGRepo_tracerCarrier" stroke-linecap="round" stroke-linejoin="round"/>
<g id="SVGRepo_iconCarrier"> <g> <path d="M7.668,25.689c0.226,0.226,0.658,0.226,0.884-0.001l3.491-3.493v21.306c0,0.346,0.28,0.625,0.625,0.625h23.663 c0.345,0,0.625-0.279,0.625-0.625V21.969l3.719,3.721c0.236,0.234,0.647,0.234,0.884-0.001l7.485-7.485 c0.244-0.244,0.244-0.641,0-0.884L37.009,5.284c-0.118-0.117-0.275-0.183-0.442-0.183h-7.188c-0.346,0-0.625,0.28-0.625,0.625V8.11 h-8.61V5.727c0-0.345-0.28-0.625-0.625-0.625h-6.854c-0.127,0-0.321,0.058-0.446,0.183L0.183,17.318 c-0.244,0.244-0.244,0.641,0,0.885L7.668,25.689z M12.918,6.352h5.975v2.385c0,0.345,0.28,0.625,0.625,0.625h9.86 c0.345,0,0.625-0.28,0.625-0.625V6.352h6.306l11.409,11.41l-6.603,6.603l-4.344-4.346c-0.176-0.175-0.443-0.23-0.682-0.136 c-0.234,0.098-0.385,0.325-0.385,0.578v22.416H13.293V20.687c0-0.253-0.151-0.48-0.386-0.579c-0.233-0.092-0.506-0.04-0.681,0.138 L8.11,24.363L1.508,17.76L12.918,6.352z"/> </g> </g>
</svg>